{
  "accessors": [
    {
      "bufferView": 1,
      "componentType": 5126,
      "count": 137,
      "max": [
        -0.8078680038452148,
        -0.0,
        -0.887499988079071
      ],
      "min": [
        -0.9328680038452148,
        -0.25,
        -1.0125000476837158
      ],
      "type": "VEC3"
    },
    {
      "bufferView": 1,
      "byteOffset": 1644,
      "componentType": 5126,
      "count": 137,
      "max": [
        0.9876939654350281,
        1.0,
        0.9876939654350281
      ],
      "min": [
        -0.9876939654350281,
        -0.0,
        -0.9876939654350281
      ],
      "type": "VEC3"
    },
    {
      "bufferView": 0,
      "componentType": 5125,
      "count": 312,
      "type": "SCALAR"
    },
    {
      "bufferView": 1,
      "byteOffset": 3288,
      "componentType": 5126,
      "count": 19,
      "max": [
        -0.8403679728507996,
        0.029999999329447746,
        -0.9200000166893005
      ],
      "min": [
        -0.9003679752349854,
        -0.029999999329447746,
        -0.9800000190734863
      ],
      "type": "VEC3"
    },
    {
      "bufferView": 1,
      "byteOffset": 3516,
      "componentType": 5126,
      "count": 19,
      "max": [
        1.0,
        1.0,
        1.0
      ],
      "min": [
        -1.0,
        -1.0,
        -1.0
      ],
      "type": "VEC3"
    },
    {
      "bufferView": 0,
      "byteOffset": 1248,
      "componentType": 5125,
      "count": 96,
      "type": "SCALAR"
    },
    {
      "bufferView": 1,
      "byteOffset": 3744,
      "componentType": 5126,
      "count": 137,
      "max": [
        -0.8078680038452148,
        0.0625,
        -0.699999988079071
      ],
      "min": [
        -0.9328680038452148,
        -0.0625,
        -0.949999988079071
      ],
      "type": "VEC3"
    },
    {
      "bufferView": 1,
      "byteOffset": 5388,
      "componentType": 5126,
      "count": 137,
      "max": [
        0.9876939654350281,
        0.9876939654350281,
        0.0
      ],
      "min": [
        -0.9876939654350281,
        -0.9876939654350281,
        -1.0
      ],
      "type": "VEC3"
    },
    {
      "bufferView": 0,
      "byteOffset": 1632,
      "componentType": 5125,
      "count": 312,
      "type": "SCALAR"
    },
    {
      "bufferView": 1,
      "byteOffset": 7032,
      "componentType": 5126,
      "count": 9834,
      "max": [
        0.18499599397182465,
        0.6490129828453064,
        0.11167900264263153
      ],
      "min": [
        -0.8703680038452148,
        -0.6277830004692078,
        -1.0125000476837158
      ],
      "type": "VEC3"
    },
    {
      "bufferView": 1,
      "byteOffset": 125040,
      "componentType": 5126,
      "count": 9834,
      "max": [
        1.0,
        1.0,
        1.0
      ],
      "min": [
        -1.0,
        -1.0,
        -1.0
      ],
      "type": "VEC3"
    },
    {
      "bufferView": 0,
      "byteOffset": 2880,
      "componentType": 5125,
      "count": 83256,
      "type": "SCALAR"
    },
    {
      "bufferView": 1,
      "byteOffset": 243048,
      "componentType": 5126,
      "count": 9697,
      "max": [
        0.18499599397182465,
        0.6490129828453064,
        0.11167900264263153
      ],
      "min": [
        -0.33000698685646057,
        -0.6277830004692078,
        -0.30520400404930115
      ],
      "type": "VEC3"
    },
    {
      "bufferView": 1,
      "byteOffset": 359412,
      "componentType": 5126,
      "count": 9697,
      "max": [
        1.0,
        1.0,
        1.0
      ],
      "min": [
        -1.0,
        -1.0,
        -1.0
      ],
      "type": "VEC3"
    },
    {
      "bufferView": 0,
      "byteOffset": 335904,
      "componentType": 5125,
      "count": 82944,
      "type": "SCALAR"
    },
    {
      "bufferView": 1,
      "byteOffset": 475776,
      "componentType": 5126,
      "count": 13780,
      "max": [
        0.5108230113983154,
        0.08549799770116806,
        0.4966210126876831
      ],
      "min": [
        -0.3525330126285553,
        -1.287322998046875,
        -0.33365398645401
      ],
      "type": "VEC3"
    },
    {
      "bufferView": 1,
      "byteOffset": 641136,
      "componentType": 5126,
      "count": 13780,
      "max": [
        1.0,
        1.0,
        1.0
      ],
      "min": [
        -1.0,
        -1.0,
        -1.0
      ],
      "type": "VEC3"
    },
    {
      "bufferView": 0,
      "byteOffset": 667680,
      "componentType": 5125,
      "count": 79872,
      "type": "SCALAR"
    },
    {
      "bufferView": 1,
      "byteOffset": 806496,
      "componentType": 5126,
      "count": 13780,
      "max": [
        0.5674870014190674,
        0.1421619951725006,
        0.5532850027084351
      ],
      "min": [
        -0.40919700264930725,
        -1.343986988067627,
        -0.39031800627708435
      ],
      "type": "VEC3"
    },
    {
      "bufferView": 1,
      "byteOffset": 971856,
      "componentType": 5126,
      "count": 13780,
      "max": [
        1.0,
        1.0,
        1.0
      ],
      "min": [
        -1.0,
        -1.0,
        -1.0
      ],
      "type": "VEC3"
    },
    {
      "bufferView": 0,
      "byteOffset": 987168,
      "componentType": 5125,
      "count": 79872,
      "type": "SCALAR"
    },
    {
      "bufferView": 1,
      "byteOffset": 1137216,
      "componentType": 5126,
      "count": 4240,
      "max": [
        0.29900699853897095,
        0.6600589752197266,
        0.12347999960184097
      ],
      "min": [
        -0.3188740015029907,
        0.1358959972858429,
        -0.3165369927883148
      ],
      "type": "VEC3"
    },
    {
      "bufferView": 1,
      "byteOffset": 1188096,
      "componentType": 5126,
      "count": 4240,
      "max": [
        1.0,
        1.0,
        1.0
      ],
      "min": [
        -1.0,
        -1.0,
        -1.0
      ],
      "type": "VEC3"
    },
    {
      "bufferView": 0,
      "byteOffset": 1306656,
      "componentType": 5125,
      "count": 49152,
      "type": "SCALAR"
    },
    {
      "bufferView": 1,
      "byteOffset": 1238976,
      "componentType": 5126,
      "count": 16165,
      "max": [
        0.5095810294151306,
        1.232714056968689,
        0.4796609878540039
      ],
      "min": [
        -0.35128599405288696,
        -1.43550705909729,
        -0.3166939914226532
      ],
      "type": "VEC3"
    },
    {
      "bufferView": 1,
      "byteOffset": 1432956,
      "componentType": 5126,
      "count": 16165,
      "max": [
        1.0,
        1.0,
        1.0
      ],
      "min": [
        -1.0,
        -1.0,
        -1.0
      ],
      "type": "VEC3"
    },
    {
      "bufferView": 0,
      "byteOffset": 1503264,
      "componentType": 5125,
      "count": 93696,
      "type": "SCALAR"
    },
    {
      "bufferView": 1,
      "byteOffset": 1626936,
      "componentType": 5126,
      "count": 16165,
      "max": [
        0.5492460131645203,
        1.2723790407180786,
        0.5193259716033936
      ],
      "min": [
        -0.390951007604599,
        -1.4751720428466797,
        -0.35635900497436523
      ],
      "type": "VEC3"
    },
    {
      "bufferView": 1,
      "byteOffset": 1820916,
      "componentType": 5126,
      "count": 16165,
      "max": [
        1.0,
        1.0,
        1.0
      ],
      "min": [
        -1.0,
        -1.0,
        -1.0
      ],
      "type": "VEC3"
    },
    {
      "bufferView": 0,
      "byteOffset": 1878048,
      "componentType": 5125,
      "count": 93696,
      "type": "SCALAR"
    }
  ],
  "asset": {
    "extras": {
      "author": "yosvanyss (https://sketchfab.com/yosvanyss)",
      "license": "CC-BY-4.0 (http://creativecommons.org/licenses/by/4.0/)",
      "source": "https://sketchfab.com/3d-models/hydrogen-in-materials-0ca12d08b17d43708adb01111e6d75df",
      "title": "Hydrogen in materials"
    },
    "generator": "Sketchfab-15.87.0",
    "version": "2.0"
  },
  "bufferViews": [
    {
      "buffer": 0,
      "byteLength": 2252832,
      "name": "floatBufferViews",
      "target": 34963
    },
    {
      "buffer": 0,
      "byteLength": 2014896,
      "byteOffset": 2252832,
      "byteStride": 12,
      "name": "floatBufferViews",
      "target": 34962
    }
  ],
  "buffers": [
    {
      "byteLength": 4267728,
      "uri": "scene.bin"
    }
  ],
  "materials": [
    {
      "doubleSided": true,
      "name": "vmd_mat_cindex_0",
      "pbrMetallicRoughness": {
        "baseColorFactor": [
          0.0,
          0.0,
          0.65,
          1.0
        ],
        "metallicFactor": 0.0,
        "roughnessFactor": 0.9909213306376892
      }
    },
    {
      "doubleSided": true,
      "name": "vmd_mat_cindex_1",
      "pbrMetallicRoughness": {
        "baseColorFactor": [
          0.65,
          0.0,
          0.0,
          1.0
        ],
        "metallicFactor": 0.0,
        "roughnessFactor": 0.9732669652849408
      }
    },
    {
      "doubleSided": true,
      "name": "vmd_mat_cindex_10",
      "pbrMetallicRoughness": {
        "baseColorFactor": [
          0.16,
          0.49,
          0.49,
          1.0
        ],
        "metallicFactor": 0.0,
        "roughnessFactor": 0.9183362373959277
      }
    },
    {
      "doubleSided": true,
      "name": "vmd_mat_cindex_2",
      "pbrMetallicRoughness": {
        "baseColorFactor": [
          0.35,
          0.35,
          0.35,
          1.0
        ],
        "metallicFactor": 0.0,
        "roughnessFactor": 0.9320985947971214
      }
    },
    {
      "doubleSided": true,
      "name": "vmd_mat_cindex_24",
      "pbrMetallicRoughness": {
        "baseColorFactor": [
          0.01,
          0.03,
          0.65,
          1.0
        ],
        "metallicFactor": 0.0,
        "roughnessFactor": 0.9867894043877511
      }
    },
    {
      "doubleSided": true,
      "name": "vmd_mat_cindex_31",
      "pbrMetallicRoughness": {
        "baseColorFactor": [
          0.65,
          0.26,
          0.0,
          1.0
        ],
        "metallicFactor": 0.0,
        "roughnessFactor": 0.9372943097285714
      }
    },
    {
      "doubleSided": true,
      "name": "vmd_mat_cindex_7",
      "pbrMetallicRoughness": {
        "baseColorFactor": [
          0.0,
          0.65,
          0.0,
          1.0
        ],
        "metallicFactor": 0.0,
        "roughnessFactor": 0.9100683611090765
      }
    }
  ],
  "meshes": [
    {
      "name": "Object_0",
      "primitives": [
        {
          "attributes": {
            "NORMAL": 1,
            "POSITION": 0
          },
          "indices": 2,
          "material": 0,
          "mode": 4
        }
      ]
    },
    {
      "name": "Object_1",
      "primitives": [
        {
          "attributes": {
            "NORMAL": 4,
            "POSITION": 3
          },
          "indices": 5,
          "material": 2,
          "mode": 4
        }
      ]
    },
    {
      "name": "Object_2",
      "primitives": [
        {
          "attributes": {
            "NORMAL": 7,
            "POSITION": 6
          },
          "indices": 8,
          "material": 6,
          "mode": 4
        }
      ]
    },
    {
      "name": "Object_3",
      "primitives": [
        {
          "attributes": {
            "NORMAL": 10,
            "POSITION": 9
          },
          "indices": 11,
          "material": 1,
          "mode": 4
        }
      ]
    },
    {
      "name": "Object_4",
      "primitives": [
        {
          "attributes": {
            "NORMAL": 13,
            "POSITION": 12
          },
          "indices": 14,
          "material": 1,
          "mode": 4
        }
      ]
    },
    {
      "name": "Object_5",
      "primitives": [
        {
          "attributes": {
            "NORMAL": 16,
            "POSITION": 15
          },
          "indices": 17,
          "material": 3,
          "mode": 4
        }
      ]
    },
    {
      "name": "Object_6",
      "primitives": [
        {
          "attributes": {
            "NORMAL": 19,
            "POSITION": 18
          },
          "indices": 20,
          "material": 3,
          "mode": 4
        }
      ]
    },
    {
      "name": "Object_7",
      "primitives": [
        {
          "attributes": {
            "NORMAL": 22,
            "POSITION": 21
          },
          "indices": 23,
          "material": 4,
          "mode": 4
        }
      ]
    },
    {
      "name": "Object_8",
      "primitives": [
        {
          "attributes": {
            "NORMAL": 25,
            "POSITION": 24
          },
          "indices": 26,
          "material": 5,
          "mode": 4
        }
      ]
    },
    {
      "name": "Object_9",
      "primitives": [
        {
          "attributes": {
            "NORMAL": 28,
            "POSITION": 27
          },
          "indices": 29,
          "material": 5,
          "mode": 4
        }
      ]
    }
  ],
  "nodes": [
    {
      "children": [
        1
      ],
      "matrix": [
        1.0,
        0.0,
        0.0,
        0.0,
        0.0,
        2.220446049250313e-16,
        -1.0,
        0.0,
        0.0,
        1.0,
        2.220446049250313e-16,
        0.0,
        0.0,
        0.0,
        0.0,
        1.0
      ],
      "name": "Sketchfab_model"
    },
    {
      "children": [
        2,
        3,
        4,
        5,
        6,
        7,
        8,
        9,
        10,
        11
      ],
      "name": "interface_dist+h.obj.cleaner.materialmerger.gles"
    },
    {
      "mesh": 0,
      "name": "Object_2"
    },
    {
      "mesh": 1,
      "name": "Object_3"
    },
    {
      "mesh": 2,
      "name": "Object_4"
    },
    {
      "mesh": 3,
      "name": "Object_5"
    },
    {
      "mesh": 4,
      "name": "Object_6"
    },
    {
      "mesh": 5,
      "name": "Object_7"
    },
    {
      "mesh": 6,
      "name": "Object_8"
    },
    {
      "mesh": 7,
      "name": "Object_9"
    },
    {
      "mesh": 8,
      "name": "Object_10"
    },
    {
      "mesh": 9,
      "name": "Object_11"
    }
  ],
  "scene": 0,
  "scenes": [
    {
      "name": "Sketchfab_Scene",
      "nodes": [
        0
      ]
    }
  ]
}
