{
  "accessors": [
    {
      "bufferView": 1,
      "componentType": 5126,
      "count": 19,
      "max": [
        -1.319357991218567,
        0.029999999329447746,
        -0.9200000166893005
      ],
      "min": [
        -1.3793580532073975,
        -0.029999999329447746,
        -0.9800000190734863
      ],
      "type": "VEC3"
    },
    {
      "bufferView": 1,
      "byteOffset": 228,
      "componentType": 5126,
      "count": 19,
      "max": [
        1.0,
        1.0,
        1.0
      ],
      "min": [
        -1.0,
        -1.0,
        -1.0
      ],
      "type": "VEC3"
    },
    {
      "bufferView": 0,
      "componentType": 5125,
      "count": 96,
      "type": "SCALAR"
    },
    {
      "bufferView": 1,
      "byteOffset": 456,
      "componentType": 5126,
      "count": 13780,
      "max": [
        0.4749870002269745,
        0.011932999826967716,
        0.46253201365470886
      ],
      "min": [
        -0.32944801449775696,
        -1.2121150493621826,
        -0.31465598940849304
      ],
      "type": "VEC3"
    },
    {
      "bufferView": 1,
      "byteOffset": 165816,
      "componentType": 5126,
      "count": 13780,
      "max": [
        1.0,
        1.0,
        1.0
      ],
      "min": [
        -1.0,
        -1.0,
        -1.0
      ],
      "type": "VEC3"
    },
    {
      "bufferView": 0,
      "byteOffset": 384,
      "componentType": 5125,
      "count": 79872,
      "type": "SCALAR"
    },
    {
      "bufferView": 1,
      "byteOffset": 331176,
      "componentType": 5126,
      "count": 16165,
      "max": [
        0.45996299386024475,
        0.9428229928016663,
        0.43456199765205383
      ],
      "min": [
        -0.3144190013408661,
        -1.3201650381088257,
        -0.2866860032081604
      ],
      "type": "VEC3"
    },
    {
      "bufferView": 1,
      "byteOffset": 525156,
      "componentType": 5126,
      "count": 16165,
      "max": [
        1.0,
        1.0,
        1.0
      ],
      "min": [
        -1.0,
        -1.0,
        -1.0
      ],
      "type": "VEC3"
    },
    {
      "bufferView": 0,
      "byteOffset": 319872,
      "componentType": 5125,
      "count": 93696,
      "type": "SCALAR"
    },
    {
      "bufferView": 1,
      "byteOffset": 719136,
      "componentType": 5126,
      "count": 137,
      "max": [
        -1.2868579626083374,
        0.0625,
        -0.699999988079071
      ],
      "min": [
        -1.4118579626083374,
        -0.0625,
        -0.949999988079071
      ],
      "type": "VEC3"
    },
    {
      "bufferView": 1,
      "byteOffset": 720780,
      "componentType": 5126,
      "count": 137,
      "max": [
        0.9876939654350281,
        0.9876939654350281,
        0.0
      ],
      "min": [
        -0.9876939654350281,
        -0.9876939654350281,
        -1.0
      ],
      "type": "VEC3"
    },
    {
      "bufferView": 0,
      "byteOffset": 694656,
      "componentType": 5125,
      "count": 312,
      "type": "SCALAR"
    },
    {
      "bufferView": 1,
      "byteOffset": 722424,
      "componentType": 5126,
      "count": 4642,
      "max": [
        0.240788996219635,
        0.4254249930381775,
        0.09545999765396118
      ],
      "min": [
        -1.4118579626083374,
        -0.25,
        -1.0125000476837158
      ],
      "type": "VEC3"
    },
    {
      "bufferView": 1,
      "byteOffset": 778128,
      "componentType": 5126,
      "count": 4642,
      "max": [
        1.0,
        1.0,
        1.0
      ],
      "min": [
        -1.0,
        -1.0,
        -1.0
      ],
      "type": "VEC3"
    },
    {
      "bufferView": 0,
      "byteOffset": 695904,
      "componentType": 5125,
      "count": 26424,
      "type": "SCALAR"
    },
    {
      "bufferView": 1,
      "byteOffset": 833832,
      "componentType": 5126,
      "count": 9677,
      "max": [
        0.15995199978351593,
        0.9267820119857788,
        0.09880799800157547
      ],
      "min": [
        -1.3493579626083374,
        -0.6222230195999146,
        -1.0125000476837158
      ],
      "type": "VEC3"
    },
    {
      "bufferView": 1,
      "byteOffset": 949956,
      "componentType": 5126,
      "count": 9677,
      "max": [
        1.0,
        1.0,
        1.0
      ],
      "min": [
        -1.0,
        -1.0,
        -1.0
      ],
      "type": "VEC3"
    },
    {
      "bufferView": 0,
      "byteOffset": 801600,
      "componentType": 5125,
      "count": 81720,
      "type": "SCALAR"
    }
  ],
  "asset": {
    "extras": {
      "author": "yosvanyss (https://sketchfab.com/yosvanyss)",
      "license": "CC-BY-4.0 (http://creativecommons.org/licenses/by/4.0/)",
      "source": "https://sketchfab.com/3d-models/hydrogen-in-metals-bd9932e80c514a1fabf666d8172487ba",
      "title": "Hydrogen in metals"
    },
    "generator": "Sketchfab-15.87.0",
    "version": "2.0"
  },
  "bufferViews": [
    {
      "buffer": 0,
      "byteLength": 1128480,
      "name": "floatBufferViews",
      "target": 34963
    },
    {
      "buffer": 0,
      "byteLength": 1066080,
      "byteOffset": 1128480,
      "byteStride": 12,
      "name": "floatBufferViews",
      "target": 34962
    }
  ],
  "buffers": [
    {
      "byteLength": 2194560,
      "uri": "scene.bin"
    }
  ],
  "materials": [
    {
      "doubleSided": true,
      "name": "vmd_mat_cindex_0",
      "pbrMetallicRoughness": {
        "baseColorFactor": [
          0.0,
          0.0,
          0.65,
          1.0
        ],
        "metallicFactor": 0.0,
        "roughnessFactor": 0.9909213306376892
      }
    },
    {
      "doubleSided": true,
      "name": "vmd_mat_cindex_1",
      "pbrMetallicRoughness": {
        "baseColorFactor": [
          0.65,
          0.0,
          0.0,
          1.0
        ],
        "metallicFactor": 0.0,
        "roughnessFactor": 0.9732669652849408
      }
    },
    {
      "doubleSided": true,
      "name": "vmd_mat_cindex_10",
      "pbrMetallicRoughness": {
        "baseColorFactor": [
          0.16,
          0.49,
          0.49,
          1.0
        ],
        "metallicFactor": 0.0,
        "roughnessFactor": 0.9183362373959277
      }
    },
    {
      "doubleSided": true,
      "name": "vmd_mat_cindex_2",
      "pbrMetallicRoughness": {
        "baseColorFactor": [
          0.35,
          0.35,
          0.35,
          1.0
        ],
        "metallicFactor": 0.0,
        "roughnessFactor": 0.9320985947971214
      }
    },
    {
      "doubleSided": true,
      "name": "vmd_mat_cindex_31",
      "pbrMetallicRoughness": {
        "baseColorFactor": [
          0.65,
          0.26,
          0.0,
          1.0
        ],
        "metallicFactor": 0.0,
        "roughnessFactor": 0.9372943097285714
      }
    },
    {
      "doubleSided": true,
      "name": "vmd_mat_cindex_7",
      "pbrMetallicRoughness": {
        "baseColorFactor": [
          0.0,
          0.65,
          0.0,
          1.0
        ],
        "metallicFactor": 0.0,
        "roughnessFactor": 0.9100683611090765
      }
    }
  ],
  "meshes": [
    {
      "name": "Object_0",
      "primitives": [
        {
          "attributes": {
            "NORMAL": 1,
            "POSITION": 0
          },
          "indices": 2,
          "material": 2,
          "mode": 4
        }
      ]
    },
    {
      "name": "Object_1",
      "primitives": [
        {
          "attributes": {
            "NORMAL": 4,
            "POSITION": 3
          },
          "indices": 5,
          "material": 3,
          "mode": 4
        }
      ]
    },
    {
      "name": "Object_2",
      "primitives": [
        {
          "attributes": {
            "NORMAL": 7,
            "POSITION": 6
          },
          "indices": 8,
          "material": 4,
          "mode": 4
        }
      ]
    },
    {
      "name": "Object_3",
      "primitives": [
        {
          "attributes": {
            "NORMAL": 10,
            "POSITION": 9
          },
          "indices": 11,
          "material": 5,
          "mode": 4
        }
      ]
    },
    {
      "name": "Object_4",
      "primitives": [
        {
          "attributes": {
            "NORMAL": 13,
            "POSITION": 12
          },
          "indices": 14,
          "material": 0,
          "mode": 4
        }
      ]
    },
    {
      "name": "Object_5",
      "primitives": [
        {
          "attributes": {
            "NORMAL": 16,
            "POSITION": 15
          },
          "indices": 17,
          "material": 1,
          "mode": 4
        }
      ]
    }
  ],
  "nodes": [
    {
      "children": [
        1
      ],
      "matrix": [
        1.0,
        0.0,
        0.0,
        0.0,
        0.0,
        2.220446049250313e-16,
        -1.0,
        0.0,
        0.0,
        1.0,
        2.220446049250313e-16,
        0.0,
        0.0,
        0.0,
        0.0,
        1.0
      ],
      "name": "Sketchfab_model"
    },
    {
      "children": [
        2,
        3,
        4,
        5,
        6,
        7
      ],
      "name": "interface_dist+h.obj.cleaner.materialmerger.gles"
    },
    {
      "mesh": 0,
      "name": "Object_2"
    },
    {
      "mesh": 1,
      "name": "Object_3"
    },
    {
      "mesh": 2,
      "name": "Object_4"
    },
    {
      "mesh": 3,
      "name": "Object_5"
    },
    {
      "mesh": 4,
      "name": "Object_6"
    },
    {
      "mesh": 5,
      "name": "Object_7"
    }
  ],
  "scene": 0,
  "scenes": [
    {
      "name": "Sketchfab_Scene",
      "nodes": [
        0
      ]
    }
  ]
}
